# xmcd CD database file
#
# Track frame offsets:
#	150
#	14039
#	42762
#	61981
#	75398
#	99401
#	123811
#	144650
#	168172
#	184147
#	195435
#	205341
#	220309
#	248737
#	277206
#	293637
#
# Disc length: 4090 seconds
#
# Revision: 0
# Processed by: cddbd v1.5.1PL0 Copyright (c) Steve Scherf et al.
# Submitted via: CDex 1.51
#
DISCID=e50ff810
DTITLE=Christiane Correa and Ran Blake - Round About
DYEAR=1992
DGENRE=Jazz
TTITLE0=Round About 1
TTITLE1=Angel Eyes
TTITLE2=Drop Me Off At Harlem
TTITLE3=Lonely House
TTITLE4=Lasr Train to Auschwitz-Freedom Day
TTITLE5=Blue Monk
TTITLE6=Sontag-The Short Life of Barbara Monk
TTITLE7=Los Angeles 92-Freedom day 2
TTITLE8=Gloomy Sunday
TTITLE9=Long As You're Living
TTITLE10=Tuesday A.M.
TTITLE11=You Don't Know What Love Is
TTITLE12=I Get A Kick Out Of You
TTITLE13=You Go To My Head
TTITLE14=Marjorie Schuller
TTITLE15=Round About 2
EXTD=YEAR: 1992
EXTT0=
EXTT1=
EXTT2=
EXTT3=
EXTT4=
EXTT5=
EXTT6=
EXTT7=
EXTT8=
EXTT9=
EXTT10=
EXTT11=
EXTT12=
EXTT13=
EXTT14=
EXTT15=
PLAYORDER=
